<svg width="89" height="77" viewBox="0 0 89 77" fill="none" xmlns="http://www.w3.org/2000/svg">
<path d="M88.9995 9.44541V36.1452C88.9995 41.1932 84.8819 45.311 79.8337 45.311H76.9113V41.4593H79.8337C82.7561 41.4593 85.1466 39.0687 85.1466 36.1464V9.4466C85.1466 6.52423 82.7561 4.13368 79.8337 4.13368H30.1535C27.2311 4.13368 24.8406 6.52423 24.8406 9.4466V11.9707H20.9888V9.4466C20.9888 4.39864 25.1065 0.280762 30.1547 0.280762H79.9677C84.8814 0.280762 89 4.3984 89 9.4466L88.9995 9.44541ZM21.6523 76.1285L36.397 63.6418H65.4878C70.5357 63.6418 74.6536 59.5241 74.6536 54.4759V23.2598C74.6536 18.2118 70.536 14.0939 65.4878 14.0939H9.16583C4.11788 14.0939 0 18.2116 0 23.2598V54.4759C0 59.5239 4.11764 63.6418 9.16583 63.6418H17.2688V74.1352C17.2688 75.198 17.7997 76.1274 18.8625 76.5258C19.2609 76.6583 19.6594 76.7917 19.9253 76.7917C20.5896 76.7926 21.1215 76.5267 21.6524 76.1283L21.6523 76.1285ZM65.6206 17.9468C68.543 17.9468 70.9335 20.3374 70.9335 23.2598L70.9344 54.4759C70.9344 57.3983 68.5439 59.7888 65.6215 59.7888H35.0695L21.2552 71.4785V59.7888H9.30055C6.37818 59.7888 3.98763 57.3983 3.98763 54.4759L3.98577 23.2598C3.98577 20.3374 6.37633 17.9468 9.29869 17.9468H65.6206ZM58.3145 29.1047H16.7372C15.5419 29.1047 14.4791 30.1675 14.4791 31.3628C14.4791 32.5581 15.5419 33.6209 16.7372 33.6209H58.3145C59.5098 33.6209 60.5725 32.5581 60.5725 31.3628C60.5725 30.1675 59.5097 29.1047 58.3135 29.1047H58.3145ZM53.9316 43.3185H16.7379C15.5426 43.3185 14.4798 44.3813 14.4798 45.5766C14.4798 46.7719 15.5426 47.8347 16.7379 47.8347H53.9316C55.1269 47.8347 56.1897 46.7719 56.1897 45.5766C56.1897 44.3813 55.2594 43.3185 53.9316 43.3185Z" fill="#66FF99"/>
</svg>
