<svg width="102" height="99" viewBox="0 0 102 99" fill="none" xmlns="http://www.w3.org/2000/svg">
<path d="M95.6197 46.7182C92.4109 46.7182 89.7665 49.0808 89.3083 52.1479H60.5732C60.5023 51.4426 60.3614 50.7726 60.1504 50.1027L83.2794 39.7724C84.2312 41.0414 85.9593 41.5705 87.4755 40.9359C89.309 40.1951 90.1554 38.0798 89.4146 36.2816C88.6738 34.4481 86.5584 33.6017 84.7603 34.3425C83.1739 35.0125 82.2923 36.6696 82.6094 38.3269L59.5144 48.6226C59.1971 48.0582 58.8444 47.4945 58.4563 47.0009L67.3768 38.2923C69.8803 40.2667 73.5118 40.1258 75.8036 37.8341C78.3071 35.3306 78.3071 31.311 75.8036 28.8082C73.3001 26.3047 69.2804 26.3047 66.7777 28.8082C64.5214 31.0645 64.345 34.6261 66.2132 37.1296L57.2927 45.8381C56.4819 45.1328 55.5301 44.569 54.5074 44.1455L64.9441 19.3581C66.5304 19.5699 68.0821 18.7236 68.7167 17.2073C69.4575 15.3738 68.6112 13.2938 66.7776 12.553C64.944 11.8122 62.8641 12.6585 62.1233 14.4921C61.4533 16.0784 62.0525 17.8773 63.4278 18.8291L52.9558 43.7223C52.6031 43.6514 52.2504 43.6167 51.8977 43.5813V12.6929C55.0357 12.3048 57.4683 9.62579 57.4683 6.38149C57.4683 2.85538 54.6122 0 51.0868 0C47.5607 0 44.7054 2.85614 44.7054 6.38149C44.7054 9.62503 47.138 12.3047 50.276 12.6929V43.5794C49.3942 43.6503 48.548 43.8613 47.7725 44.1439L35.6432 18.7218C36.9123 17.77 37.4413 16.0419 36.8068 14.5257C36.066 12.6922 33.9506 11.8458 32.1524 12.5866C30.3189 13.3274 29.4725 15.4428 30.2134 17.2409C30.8833 18.8273 32.5404 19.7089 34.1977 19.3918L46.327 44.8479C45.8688 45.1297 45.4453 45.4123 45.0225 45.7296L36.102 36.8794C37.9709 34.3759 37.7946 30.8498 35.5376 28.558C33.0341 26.0545 29.0144 26.0545 26.5117 28.558C24.0082 31.0615 24.0082 35.0812 26.5117 37.5839C28.8387 39.911 32.4349 40.0166 34.9384 38.0421L43.7881 46.8918C43.3299 47.4208 42.9418 47.9845 42.6245 48.5843L7.61271 33.8107C7.82447 32.2243 6.97817 30.6727 5.46187 30.0381C3.66378 29.2633 1.54835 30.145 0.807546 31.9432C0.066756 33.7767 0.913055 35.8567 2.74664 36.5975C4.33298 37.2674 6.13185 36.6683 7.08364 35.293L42.0255 50.0667C41.8138 50.7366 41.6374 51.442 41.5673 52.1467H17.1671C16.7089 49.0796 14.0645 46.717 10.8557 46.717C7.32961 46.717 4.47423 49.5731 4.47423 53.0985C4.47423 56.6246 7.33036 59.48 10.8557 59.48C14.1346 59.48 16.8498 57.012 17.2026 53.803H41.567C41.6378 54.7194 41.8141 55.6011 42.1314 56.4119L31.8712 60.9954C30.9193 59.7263 29.1913 59.1973 27.6751 59.8318C25.8416 60.5726 24.9952 62.688 25.736 64.4861C26.4768 66.3196 28.5921 67.166 30.3903 66.4252C31.9766 65.7553 32.8583 64.0982 32.5411 62.4409L42.8014 57.8574C43.0486 58.3156 43.3658 58.7391 43.6831 59.1619L19.8835 82.4326C17.3801 80.5636 13.854 80.74 11.5622 82.997C9.05872 85.5005 9.05872 89.5202 11.5622 92.0229C14.0657 94.5264 18.0854 94.5264 20.5881 92.0229C22.9152 89.6958 23.0207 86.0996 21.0463 83.5961L44.8458 60.3614C45.1277 60.6085 45.3749 60.8196 45.6921 61.0313L39.3807 76.016C37.7944 75.8042 36.2428 76.6505 35.6081 78.1668C34.8673 80.0003 35.7136 82.0803 37.5472 82.8211C39.3807 83.5619 41.4607 82.7156 42.2015 80.882C42.8715 79.2957 42.2724 77.4968 40.8971 76.545L47.1023 61.8069C48.0896 62.2651 49.1476 62.5477 50.2758 62.6532L50.2765 80.494C47.1386 80.8821 44.7059 83.5611 44.7059 86.8054C44.7059 90.3315 47.5621 93.1869 51.0874 93.1869C54.6135 93.1869 57.4689 90.3307 57.4689 86.8054C57.4689 83.5618 55.0362 80.8821 51.8983 80.494V62.6177C52.8147 62.5468 53.661 62.3358 54.5072 62.0185L68.7165 91.8114C67.4474 92.7632 66.9184 94.4913 67.5529 96.0075C68.2937 97.841 70.409 98.6874 72.2072 97.9466C74.0407 97.2058 74.8871 95.0905 74.1463 93.2923C73.4763 91.706 71.8192 90.8243 70.162 91.1415L55.9174 61.3127C56.411 61.0308 56.8338 60.7136 57.2573 60.3609L82.362 85.4656C80.3876 87.9691 80.5285 91.6006 82.8202 93.8924C85.3237 96.3958 89.3434 96.3958 91.8461 93.8924C94.3496 91.3889 94.3496 87.3692 91.8461 84.8665C89.5899 82.6102 86.0283 82.4338 83.5248 84.302L58.42 59.1973C58.8428 58.6682 59.2309 58.1045 59.5482 57.5047L71.7475 62.6526C71.5358 64.2389 72.3821 65.7905 73.8984 66.4252C75.7319 67.166 77.8119 66.3197 78.5527 64.4861C79.2935 62.6525 78.4472 60.5726 76.6136 59.8318C75.0273 59.1618 73.2284 59.7609 72.2766 61.1362L60.1473 56.0239C60.3591 55.3185 60.5 54.5785 60.5701 53.8377H89.2712C89.6239 57.0112 92.3038 59.5147 95.6181 59.5147C99.1443 59.5147 102 56.6585 102 53.1332C102.002 49.6071 99.1458 46.7162 95.6204 46.7162L95.6197 46.7182Z" fill="#66FF99"/>
</svg>
