<svg width="215" height="56" viewBox="0 0 215 56" fill="none" xmlns="http://www.w3.org/2000/svg">
<path d="M54.6468 10.0083C54.6468 10.0083 33.2694 15.428 30.1103 16.3324C18.6637 19.604 19.1138 28.9252 19.1172 28.9964L19.1173 28.9968C19.0298 31.0454 21.3035 30.1184 21.3035 30.1184L41.3182 24.9353C41.3182 24.9353 48.3104 23.1232 51.4476 19.9499C54.5849 16.7765 55.4811 12.9062 55.4047 11.1623C55.3463 9.82677 54.6468 10.0083 54.6468 10.0083ZM10.7623 45.9917C10.7623 45.9917 32.1397 40.572 35.2988 39.6676C46.791 36.384 46.2954 27.0065 46.2954 27.0065C46.383 24.9578 44.1092 25.8849 44.1092 25.8849L24.0946 31.0648C24.0946 31.0648 17.0987 32.8767 13.9615 36.0501C10.8243 39.2235 9.92792 43.0938 10.0044 44.8377C10.0627 46.1732 10.7623 45.9917 10.7623 45.9917Z" fill="white"/>
<path d="M76.2859 26.532C76.2219 25.924 75.9179 25.4973 75.3739 25.252C74.8406 25.0067 74.0673 24.884 73.0539 24.884C72.0833 24.884 71.3686 24.9907 70.9099 25.204C70.4513 25.4173 70.2219 25.7373 70.2219 26.164C70.2219 26.5053 70.3499 26.7507 70.6059 26.9C70.8619 27.0387 71.2833 27.14 71.8699 27.204L76.2859 27.588C77.5446 27.7053 78.4939 28.0307 79.1339 28.564C79.7846 29.0973 80.1099 29.9187 80.1099 31.028C80.1099 31.9987 79.8433 32.7667 79.3099 33.332C78.7873 33.8867 78.0299 34.276 77.0379 34.5C76.0459 34.724 74.7873 34.836 73.2619 34.836C71.7899 34.836 70.5686 34.7187 69.5979 34.484C68.6273 34.2387 67.8699 33.812 67.3259 33.204C66.7926 32.596 66.5099 31.7533 66.4779 30.676H69.9019C69.9873 31.4333 70.3126 31.956 70.8779 32.244C71.4539 32.5213 72.2913 32.66 73.3899 32.66C74.4779 32.66 75.2833 32.5427 75.8059 32.308C76.3286 32.0733 76.5899 31.716 76.5899 31.236C76.5899 30.8307 76.4513 30.5427 76.1739 30.372C75.9073 30.1907 75.5126 30.0733 74.9899 30.02L70.6539 29.588C69.3846 29.46 68.4246 29.1507 67.7739 28.66C67.1233 28.1693 66.7979 27.396 66.7979 26.34C66.7979 25.0493 67.3473 24.1267 68.4459 23.572C69.5446 23.0173 71.1179 22.74 73.1659 22.74C75.2246 22.74 76.8193 23.0227 77.9499 23.588C79.0806 24.1533 79.6673 25.1347 79.7099 26.532H76.2859ZM83.4226 34.5V23.076H86.4306V32.052H95.1986V34.5H83.4226ZM98.5851 34.5V23.076H101.593V34.5H98.5851ZM118.7 23.076V34.5H115.244L108.332 26.66H108.252V34.5H105.388V23.076H108.924L115.74 30.82H115.82V23.076H118.7ZM136.712 34.5H134.488V33.044C133.966 33.6627 133.31 34.116 132.52 34.404C131.742 34.692 130.803 34.836 129.704 34.836C127.272 34.836 125.39 34.3347 124.056 33.332C122.734 32.3187 122.072 30.804 122.072 28.788C122.072 26.772 122.728 25.2627 124.04 24.26C125.352 23.2467 127.203 22.74 129.592 22.74C131.854 22.74 133.566 23.124 134.728 23.892C135.891 24.6493 136.531 25.6733 136.648 26.964H133.08C132.952 26.5053 132.627 26.0947 132.104 25.732C131.582 25.3693 130.744 25.188 129.592 25.188C128.227 25.188 127.182 25.4973 126.456 26.116C125.742 26.724 125.384 27.6147 125.384 28.788C125.384 30.004 125.747 30.9213 126.472 31.54C127.208 32.1587 128.291 32.468 129.72 32.468C130.904 32.468 131.784 32.26 132.36 31.844C132.947 31.4173 133.272 30.9107 133.336 30.324H129.96V28.228H136.712V34.5ZM149.598 26.532C149.534 25.924 149.23 25.4973 148.686 25.252C148.153 25.0067 147.38 24.884 146.366 24.884C145.396 24.884 144.681 24.9907 144.222 25.204C143.764 25.4173 143.534 25.7373 143.534 26.164C143.534 26.5053 143.662 26.7507 143.918 26.9C144.174 27.0387 144.596 27.14 145.182 27.204L149.598 27.588C150.857 27.7053 151.806 28.0307 152.446 28.564C153.097 29.0973 153.422 29.9187 153.422 31.028C153.422 31.9987 153.156 32.7667 152.622 33.332C152.1 33.8867 151.342 34.276 150.35 34.5C149.358 34.724 148.1 34.836 146.574 34.836C145.102 34.836 143.881 34.7187 142.91 34.484C141.94 34.2387 141.182 33.812 140.638 33.204C140.105 32.596 139.822 31.7533 139.79 30.676H143.214C143.3 31.4333 143.625 31.956 144.19 32.244C144.766 32.5213 145.604 32.66 146.702 32.66C147.79 32.66 148.596 32.5427 149.118 32.308C149.641 32.0733 149.902 31.716 149.902 31.236C149.902 30.8307 149.764 30.5427 149.486 30.372C149.22 30.1907 148.825 30.0733 148.302 30.02L143.966 29.588C142.697 29.46 141.737 29.1507 141.086 28.66C140.436 28.1693 140.11 27.396 140.11 26.34C140.11 25.0493 140.66 24.1267 141.758 23.572C142.857 23.0173 144.43 22.74 146.478 22.74C148.537 22.74 150.132 23.0227 151.262 23.588C152.393 24.1533 152.98 25.1347 153.022 26.532H149.598ZM170.047 23.076V34.5H167.039V29.86H159.743V34.5H156.735V23.076H159.743V27.444H167.039V23.076H170.047ZM180.955 22.74C183.333 22.74 185.179 23.2467 186.491 24.26C187.813 25.2733 188.475 26.7827 188.475 28.788C188.475 30.7933 187.813 32.3027 186.491 33.316C185.179 34.3293 183.333 34.836 180.955 34.836C178.576 34.836 176.725 34.3293 175.403 33.316C174.091 32.3027 173.435 30.7933 173.435 28.788C173.435 26.7827 174.091 25.2733 175.403 24.26C176.725 23.2467 178.576 22.74 180.955 22.74ZM180.955 32.388C182.32 32.388 183.36 32.084 184.075 31.476C184.8 30.8573 185.163 29.9613 185.163 28.788C185.163 27.6147 184.8 26.724 184.075 26.116C183.36 25.4973 182.32 25.188 180.955 25.188C179.589 25.188 178.544 25.4973 177.819 26.116C177.104 26.724 176.747 27.6147 176.747 28.788C176.747 29.9613 177.104 30.8573 177.819 31.476C178.544 32.084 179.589 32.388 180.955 32.388ZM203.903 25.556H198.783V34.5H195.775V25.556H190.671V23.076H203.903V25.556Z" fill="white"/>
</svg>
