<svg width="33" height="26" viewBox="0 0 33 26" fill="none" xmlns="http://www.w3.org/2000/svg">
<path d="M31.9673 0.953516C31.9673 0.953516 17.1148 4.71902 14.9199 5.34735C6.96708 7.62039 7.27981 14.0965 7.2822 14.146L7.28222 14.1463C7.22146 15.5696 8.80115 14.9255 8.80115 14.9255L22.7069 11.3244C22.7069 11.3244 27.565 10.0655 29.7446 7.86068C31.9243 5.65589 32.547 2.96689 32.4939 1.75526C32.4533 0.827398 31.9673 0.953516 31.9673 0.953516ZM1.4774 25.954C1.4774 25.954 16.3299 22.1885 18.5248 21.5601C26.5093 19.2787 26.165 12.7635 26.165 12.7635C26.2258 11.3401 24.646 11.9842 24.646 11.9842L10.7403 15.5831C10.7403 15.5831 5.87975 16.8419 3.70009 19.0468C1.52043 21.2516 0.897674 23.9406 0.950838 25.1522C0.991343 26.08 1.4774 25.954 1.4774 25.954Z" fill="white"/>
</svg>
