<svg width="85" height="85" viewBox="0 0 100 85" fill="none" xmlns="http://www.w3.org/2000/svg">
<path transform="translate(82, 0)" d="M8.10888 10.392C9.43154 10.392 10.5195 10.04 11.3729 9.336C12.2262 8.632 12.6529 7.66133 12.6529 6.424C12.6529 5.18667 12.2369 4.216 11.4049 3.512C10.5729 2.78667 9.53821 2.424 8.30088 2.424C7.06354 2.424 6.03954 2.78667 5.22888 3.512C4.43954 4.23733 3.94888 5.29333 3.75688 6.68L1.06888 6.36C1.32488 4.39733 2.09288 2.872 3.37288 1.784C4.67421 0.695999 6.31688 0.151999 8.30088 0.151999C9.62354 0.151999 10.8289 0.397332 11.9169 0.887999C13.0049 1.35733 13.8582 2.072 14.4769 3.032C15.1169 3.97067 15.4369 5.10133 15.4369 6.424C15.4369 7.512 15.1275 8.48267 14.5089 9.336C13.8902 10.1893 13.0795 10.8293 12.0769 11.256V11.352C13.3142 11.7787 14.3062 12.472 15.0529 13.432C15.7995 14.3707 16.1729 15.512 16.1729 16.856C16.1729 18.2853 15.8209 19.4907 15.1169 20.472C14.4129 21.4533 13.4635 22.1893 12.2689 22.68C11.0955 23.1707 9.77288 23.416 8.30088 23.416C6.08221 23.416 4.25821 22.84 2.82888 21.688C1.39954 20.5147 0.535542 18.8293 0.236875 16.632L3.02087 16.312C3.23421 17.8907 3.79954 19.096 4.71688 19.928C5.65554 20.76 6.85021 21.176 8.30088 21.176C9.75154 21.176 10.9569 20.792 11.9169 20.024C12.8769 19.2347 13.3569 18.1787 13.3569 16.856C13.3569 15.4693 12.8769 14.4133 11.9169 13.688C10.9569 12.9413 9.67688 12.568 8.07688 12.568H6.09288V10.392H8.10888Z" fill="#66FF99"/>

<path d="M78.8667 21.625C71.2617 8.5275 57.3184 0.5 42.25 0.5C27.1816 0.5 13.2383 8.5275 5.63333 21.625C1.97167 27.9625 0 35.2858 0 42.75C0 50.2142 1.97167 57.5375 5.63333 63.875C13.0975 76.9725 27.1816 85 42.25 85C57.3184 85 71.2617 76.9725 78.8667 63.875C82.5283 57.5375 84.5 50.2142 84.5 42.75C84.5 35.2858 82.5283 27.9625 78.8667 21.625ZM76.7542 61.7633H60.5591C62.8125 56.13 63.9391 50.215 64.08 44.1583H81.6849C81.4033 50.355 79.7133 56.4108 76.7558 61.7633H76.7542ZM36.3358 76.2691C36.0541 75.9875 35.7725 75.7058 35.4908 75.2833C35.0683 74.8608 34.6458 74.2975 34.3641 73.875C34.0825 73.5933 33.8008 73.1708 33.5191 72.8891C33.0966 72.4666 32.815 71.9033 32.3925 71.4808C32.1108 71.1991 31.97 70.7766 31.6883 70.495C31.4066 69.9316 30.9841 69.5091 30.7025 68.9458C30.5616 68.6641 30.28 68.2416 30.1391 67.96C29.8575 67.3966 29.435 66.8333 29.1533 66.1291L28.7308 65.2841C28.59 65.0025 28.4491 64.7208 28.3083 64.58H40.8425V80.635C40.8425 80.635 40.7016 80.635 40.7016 80.4941C40.42 80.3533 40.2791 80.0716 39.9975 79.9308C39.4341 79.5083 39.0116 78.945 38.4483 78.5225L37.6033 77.6775C37.1808 77.255 36.7583 76.8325 36.3358 76.2691ZM7.74744 61.7633C4.78994 56.4116 3.09994 50.3558 2.81828 44.1583H20.4232C20.5641 50.2142 21.8316 56.1292 23.9441 61.7633H7.74744ZM7.74744 23.7383H23.9425C21.6891 29.3716 20.5625 35.2866 20.4216 41.3433H2.81667C3.09833 35.1466 4.78833 29.0908 7.74583 23.7383H7.74744ZM48.1658 9.23247C48.4475 9.51414 48.7291 9.7958 49.0108 10.2183C49.4333 10.6408 49.8558 11.2041 50.1375 11.6266C50.4191 11.9083 50.7008 12.3308 50.9825 12.6125C51.405 13.035 51.6866 13.5983 52.1091 14.0208C52.3908 14.3025 52.5316 14.725 52.8133 15.0066C53.095 15.57 53.5175 15.9925 53.7991 16.5558C53.94 16.8375 54.2216 17.26 54.3625 17.5416C54.6441 18.105 55.0666 18.6683 55.3483 19.3725L55.7708 20.2175C55.9116 20.4991 56.0525 20.7808 56.1933 20.9216H43.6591V4.86664C43.6591 4.86664 43.8 4.86664 43.8 5.00747C44.0816 5.1483 44.2225 5.42997 44.5041 5.71164C45.0675 6.13414 45.49 6.69747 46.0533 7.11997L46.8983 7.96497C47.3208 8.24664 47.7433 8.66914 48.1658 9.23247ZM27.0408 61.7641C24.6466 56.1308 23.3791 50.2158 23.2383 44.1591H40.8433V61.7641H27.0408ZM43.6591 23.7391H57.4608C59.855 29.3724 61.1225 35.2874 61.2633 41.3441H43.6583L43.6591 23.7391ZM40.8425 41.3441H23.2375C23.3783 35.2882 24.6458 29.3732 27.04 23.7391H40.8417L40.8425 41.3441ZM43.6591 44.1607H61.2641C61.1233 50.2166 59.8558 56.1316 57.4616 61.7657H43.6599L43.6591 44.1607ZM64.0808 41.3441C63.9399 35.2882 62.6724 29.3732 60.5599 23.7391H76.755C79.7125 29.0908 81.4025 35.1466 81.6841 41.3441H64.0808ZM75.0658 20.9224H59.2924C59.0108 20.2183 58.7291 19.5141 58.3066 18.9508L57.8841 18.1058C57.6024 17.5424 57.1799 16.8383 56.8983 16.2749C56.7574 15.9933 56.4758 15.5708 56.3349 15.2891C55.9124 14.7258 55.6308 14.1624 55.2083 13.5991C54.9266 13.3174 54.7858 12.8949 54.5041 12.6133C54.0816 12.0499 53.6591 11.4866 53.2366 10.9233C52.9549 10.6416 52.8141 10.3599 52.5324 10.0783L50.8424 7.96578C50.7016 7.82494 50.7016 7.68411 50.5608 7.54328C49.8566 6.83911 49.1524 5.99411 48.4483 5.28994C48.1666 5.14911 47.8849 4.86744 47.7441 4.72661C47.3216 4.30411 46.8991 4.02244 46.4766 3.59994C58.0249 4.86744 68.5882 11.2049 75.065 20.9216L75.0658 20.9224ZM40.8441 4.86744V20.9224H28.3099C31.4082 14.7258 35.6332 9.23328 40.8441 4.86744ZM38.0274 3.59994C32.5349 8.38828 28.1691 14.3033 25.2116 20.9216H9.43825C15.9166 11.2041 26.4799 4.86664 38.0266 3.59994H38.0274ZM9.43905 64.5816H25.2124C25.4941 65.2857 25.7757 65.9899 26.1982 66.5532L26.6207 67.3982C26.9024 67.9616 27.3249 68.6657 27.6066 69.2291C27.7474 69.5107 28.029 69.9333 28.1699 70.2149C28.5924 70.7782 28.8741 71.3416 29.2965 71.9049C29.5782 72.1866 29.719 72.6091 30.0007 72.8907C30.4232 73.4541 30.8457 74.0174 31.2682 74.5807C31.5499 74.8624 31.6907 75.1441 31.9724 75.4257C32.5357 76.1299 33.099 76.8341 33.6624 77.3974C33.8032 77.5382 33.8032 77.6791 33.944 77.8199C34.6482 78.5241 35.3524 79.3691 36.0565 80.0732L36.7607 80.7774C37.1832 81.1999 37.6057 81.4816 38.0282 81.9041C26.4799 80.6366 15.9166 74.2991 9.43986 64.5824L9.43905 64.5816ZM43.6607 80.6366V64.5816H56.1949C53.0966 70.7782 48.8716 76.2707 43.6607 80.6366ZM46.4774 81.9041C51.9699 77.1157 56.3357 71.2007 59.2932 64.5824H75.0666C68.5882 74.2999 58.0249 80.6374 46.4782 81.9041H46.4774Z" fill="#66FF99"/>
</svg>
